<svg width="38" height="30" viewBox="0 0 38 30" fill="none" xmlns="http://www.w3.org/2000/svg">
<path id="Vector" d="M32.3046 6.32576H26.6091V4.73485C26.6091 3.87626 26.3509 3.08712 25.8345 2.36742C25.3181 1.64773 24.6271 1.07323 23.7614 0.643939C22.8957 0.214646 21.9464 -8.9407e-07 20.9137 -8.9407e-07H17.0863C16.0536 -8.9407e-07 15.1043 0.214646 14.2386 0.643939C13.3729 1.07323 12.6819 1.64773 12.1655 2.36742C11.6491 3.08712 11.3909 3.87626 11.3909 4.73485V6.32576H5.69544C4.66267 6.32576 3.71343 6.5404 2.84772 6.9697C1.98201 7.39899 1.29097 7.97348 0.77458 8.69318C0.258193 9.41288 0 10.202 0 11.0606V25.2652C0 26.1237 0.258193 26.9129 0.77458 27.6326C1.29097 28.3523 1.98201 28.9268 2.84772 29.3561C3.71343 29.7854 4.66267 30 5.69544 30H32.3046C33.3373 30 34.2866 29.7854 35.1523 29.3561C36.018 28.9268 36.709 28.3523 37.2254 27.6326C37.7418 26.9129 38 26.1237 38 25.2652V11.0606C38 10.202 37.7418 9.41288 37.2254 8.69318C36.709 7.97348 36.018 7.39899 35.1523 6.9697C34.2866 6.5404 33.3373 6.32576 32.3046 6.32576ZM15.2182 4.73485C15.2182 4.30555 15.4005 3.93308 15.765 3.61742C16.1295 3.30177 16.5699 3.14394 17.0863 3.14394H20.9137C21.4301 3.14394 21.8705 3.30177 22.235 3.61742C22.5995 3.93308 22.7818 4.30555 22.7818 4.73485V6.32576H15.2182V4.73485ZM34.1727 25.2652C34.1727 25.6944 33.9904 26.0606 33.6259 26.3636C33.2614 26.6667 32.8209 26.8182 32.3046 26.8182H5.69544C5.17906 26.8182 4.73861 26.6667 4.3741 26.3636C4.00959 26.0606 3.82734 25.6944 3.82734 25.2652V16.5909C5.68026 17.197 7.57874 17.6894 9.52278 18.0682V18.9773C9.58353 19.3561 9.79616 19.678 10.1607 19.9432C10.5252 20.2083 10.9428 20.3409 11.4137 20.3409C11.8845 20.3409 12.3022 20.2083 12.6667 19.9432C13.0312 19.678 13.2438 19.3561 13.3046 18.9773V18.6742C15.1878 18.8763 17.0863 18.9773 19 18.9773C20.9137 18.9773 22.8122 18.8763 24.6954 18.6742V18.9773C24.7562 19.3561 24.9688 19.678 25.3333 19.9432C25.6978 20.2083 26.1155 20.3409 26.5863 20.3409C27.0572 20.3409 27.4748 20.2083 27.8393 19.9432C28.2038 19.678 28.4165 19.3561 28.4772 18.9773V18.0682C30.4213 17.6894 32.3197 17.197 34.1727 16.5909V25.2652ZM34.1727 13.1061C32.3197 13.7626 30.4213 14.2929 28.4772 14.697V14.2045C28.4165 13.8258 28.2038 13.5038 27.8393 13.2386C27.4748 12.9735 27.0572 12.8409 26.5863 12.8409C26.1155 12.8409 25.6978 12.9735 25.3333 13.2386C24.9688 13.5038 24.7562 13.8258 24.6954 14.2045V15.3788C20.8985 15.8586 17.1015 15.8586 13.3046 15.3788V14.2045C13.2438 13.8258 13.0312 13.5038 12.6667 13.2386C12.3022 12.9735 11.8845 12.8409 11.4137 12.8409C10.9428 12.8409 10.5252 12.9735 10.1607 13.2386C9.79616 13.5038 9.58353 13.8258 9.52278 14.2045V14.7348C7.57874 14.3308 5.68026 13.8005 3.82734 13.1439V11.0606C3.82734 10.6313 4.00959 10.2588 4.3741 9.94318C4.73861 9.62752 5.17906 9.4697 5.69544 9.4697H32.3046C32.8209 9.4697 33.2614 9.62752 33.6259 9.94318C33.9904 10.2588 34.1727 10.6313 34.1727 11.0606V13.1061Z" fill="white"/>
</svg>
