<svg width="20" height="21" viewBox="0 0 20 21" fill="none" xmlns="http://www.w3.org/2000/svg">
<g id="Icon">
<path id="Vector" d="M10.6 7.64992L7.04 11.2299L5.66 9.86992C5.56667 9.73659 5.44333 9.63659 5.29 9.56992C5.13667 9.50326 4.97667 9.48659 4.81 9.51992C4.64333 9.55326 4.5 9.62992 4.38 9.74992C4.26 9.86992 4.18333 10.0099 4.15 10.1699C4.11667 10.3299 4.13 10.4899 4.19 10.6499C4.25 10.8099 4.34667 10.9366 4.48 11.0299L6.44 13.0099C6.6 13.1699 6.79667 13.2499 7.03 13.2499C7.26333 13.2499 7.46 13.1699 7.62 13.0099L11.78 8.82992C11.94 8.66992 12.02 8.47326 12.02 8.23992C12.02 8.00659 11.94 7.80992 11.78 7.64992C11.62 7.48992 11.4233 7.40992 11.19 7.40992C10.9567 7.40992 10.76 7.48992 10.6 7.64992ZM8.34 1.98992C6.83333 1.98992 5.43333 2.36992 4.14 3.12992C2.87333 3.86326 1.87333 4.86326 1.14 6.12992C0.38 7.42326 0 8.82326 0 10.3299C0 11.8366 0.38 13.2366 1.14 14.5299C1.87333 15.7966 2.87333 16.7966 4.14 17.5299C5.43333 18.2899 6.83333 18.6699 8.34 18.6699C9.84667 18.6699 11.2467 18.2899 12.54 17.5299C13.8067 16.7966 14.8067 15.7966 15.54 14.5299C16.3 13.2366 16.68 11.8366 16.68 10.3299C16.68 8.82326 16.3 7.42326 15.54 6.12992C14.8067 4.86326 13.8067 3.86326 12.54 3.12992C11.2467 2.36992 9.84667 1.98992 8.34 1.98992ZM8.34 16.9899C7.14 16.9899 6.02 16.6899 4.98 16.0899C3.98 15.4899 3.18 14.6899 2.58 13.6899C1.98 12.6499 1.68 11.5299 1.68 10.3299C1.68 9.12992 1.98 8.00992 2.58 6.96992C3.18 5.96992 3.98 5.16992 4.98 4.56992C6.02 3.96992 7.14 3.66992 8.34 3.66992C9.54 3.66992 10.66 3.96992 11.7 4.56992C12.7 5.16992 13.5 5.96992 14.1 6.96992C14.7 8.00992 15 9.12992 15 10.3299C15 11.5299 14.7 12.6499 14.1 13.6899C13.5 14.6899 12.7 15.4899 11.7 16.0899C10.66 16.6899 9.54 16.9899 8.34 16.9899Z" fill="white"/>
</g>
</svg>
